<svg width="16" height="12" viewBox="0 0 16 12" fill="none" xmlns="http://www.w3.org/2000/svg">
<path fill-rule="evenodd" clip-rule="evenodd" d="M10.1716 11.2105C10.1716 11.2105 14.6157 6.77691 14.6584 6.73984C14.8672 6.55945 15 6.29603 15 6C15 5.69161 14.8553 5.4188 14.6311 5.23841C14.5828 5.19986 10.1716 0.789487 10.1716 0.789487C9.78325 0.403504 9.15328 0.403504 8.76546 0.789487C8.37714 1.17547 8.37714 1.80164 8.76546 2.18713L11.6065 5.01157L1.9994 5.01157C1.44749 5.01157 1 5.45439 1 6C1 6.54611 1.44749 6.98843 1.9994 6.98843L11.6065 6.98843L8.76546 9.81287C8.37714 10.1984 8.37714 10.8245 8.76546 11.2105C9.15328 11.5965 9.78325 11.5965 10.1716 11.2105Z" fill="white"/>
<path d="M10.1716 11.2105C10.1716 11.2105 14.6157 6.77691 14.6584 6.73984C14.8672 6.55945 15 6.29604 15 6C15 5.69161 14.8553 5.4188 14.6311 5.23841C14.5828 5.19987 10.1716 0.789487 10.1716 0.789487C9.78325 0.403504 9.15328 0.403504 8.76546 0.789487C8.37714 1.17547 8.37714 1.80164 8.76546 2.18713L11.6065 5.01157L1.9994 5.01157C1.44749 5.01157 1 5.45439 1 6C1 6.54611 1.44749 6.98843 1.9994 6.98843L11.6065 6.98843L8.76546 9.81287C8.37714 10.1984 8.37714 10.8245 8.76546 11.2105C9.15328 11.5965 9.78325 11.5965 10.1716 11.2105" stroke="#0898A0"/>
</svg>
