<svg width="18" height="14" viewBox="0 0 18 14" fill="none" xmlns="http://www.w3.org/2000/svg">
<path d="M2.84375 13.2975H15.2031C16.7266 13.2975 17.5 12.5162 17.5 11.0162V2.66467C17.5 1.15686 16.7266 0.37561 15.2031 0.37561H2.84375C1.3125 0.37561 0.539062 1.14905 0.539062 2.66467V11.0162C0.539062 12.524 1.3125 13.2975 2.84375 13.2975ZM1.50781 2.71155C1.50781 1.81311 1.98438 1.34436 2.85938 1.34436H15.1797C16.0391 1.34436 16.5391 1.81311 16.5391 2.71155V3.33655H1.50781V2.71155ZM2.85938 12.3287C1.98438 12.3287 1.50781 11.8678 1.50781 10.9615V4.78655H16.5391V10.9615C16.5391 11.8678 16.0391 12.3287 15.1797 12.3287H2.85938ZM3.80469 9.3678H5.71875C6.17969 9.3678 6.49219 9.0553 6.49219 8.6178V7.66467C6.49219 7.22717 6.17969 6.92249 5.71875 6.92249H3.80469C3.35156 6.92249 3.03906 7.22717 3.03906 7.66467V8.6178C3.03906 9.0553 3.35156 9.3678 3.80469 9.3678Z" fill="currentColor"/>
</svg>
