<svg width="15" height="12" viewBox="0 0 15 12" fill="none" xmlns="http://www.w3.org/2000/svg">
<path fill-rule="evenodd" clip-rule="evenodd" d="M5.66813 1.25252C5.66813 1.25252 1.16641 5.62759 1.12317 5.66409C0.911997 5.84173 0.775805 6.10339 0.771931 6.3994C0.767895 6.70776 0.909001 6.98244 1.13086 7.16575C1.17858 7.20492 5.53175 11.6727 5.53175 11.6727C5.91499 12.0637 6.5449 12.0719 6.93775 11.6911C7.33109 11.3102 7.33928 10.6841 6.95604 10.2935L4.15218 7.43215L13.7585 7.55788C14.3103 7.56511 14.7636 7.12818 14.7707 6.58262C14.7779 6.03656 14.3362 5.58841 13.7844 5.58119L4.17805 5.45546L7.05584 2.66844C7.44917 2.28807 7.45737 1.66195 7.07413 1.27092C6.69139 0.879898 6.06148 0.871653 5.66813 1.25252Z" fill="currentColor"/>
</svg>
