<svg width="24" height="17" viewBox="0 0 24 17" fill="none" xmlns="http://www.w3.org/2000/svg">
<path d="M18.1012 16.1301C18.3557 16.3972 18.7629 16.4144 19.0259 16.1301C19.2974 15.8458 19.2804 15.4581 19.0259 15.191L4.84074 0.793954C4.58622 0.535479 4.16202 0.535479 3.9075 0.793954C3.66147 1.04381 3.66147 1.48322 3.9075 1.73308L18.1012 16.1301ZM18.9071 13.6401C21.3844 11.9773 23.0049 9.69409 23.0049 8.66881C23.0049 6.9198 18.2963 1.34537 11.5091 1.34537C10.0669 1.34537 8.70942 1.59522 7.47925 2.00878L9.68507 4.2489C10.245 4.00765 10.8559 3.8698 11.5091 3.8698C14.1307 3.8698 16.2517 5.98068 16.2517 8.66881C16.2517 9.32361 16.1074 9.95257 15.8529 10.504L18.9071 13.6401ZM11.5091 15.9923C13.0787 15.9923 14.5379 15.6993 15.819 15.2168L13.5962 12.9595C12.9684 13.2869 12.2557 13.4678 11.5091 13.4678C8.86213 13.4678 6.76659 11.288 6.75811 8.66881C6.75811 7.89339 6.93627 7.16104 7.25018 6.51486L4.34867 3.55102C1.67622 5.24833 0.00488281 7.63491 0.00488281 8.66881C0.00488281 10.4092 4.79832 15.9923 11.5091 15.9923ZM14.207 8.48788C14.207 6.98011 13.0108 5.75666 11.5091 5.75666C11.3988 5.75666 11.2885 5.76528 11.1867 5.7739L14.1901 8.8239C14.1985 8.72051 14.207 8.59988 14.207 8.48788ZM8.80274 8.47065C8.80274 9.98703 10.0329 11.2105 11.5176 11.2105C11.6364 11.2105 11.7467 11.2019 11.8655 11.1932L8.81971 8.10017C8.81123 8.22079 8.80274 8.35003 8.80274 8.47065Z" fill="#0898A0"/>
</svg>
